<svg width="12" height="12" viewBox="0 0 12 12" fill="none" xmlns="http://www.w3.org/2000/svg">
<path d="M2.25 11C2.05 11 1.875 10.925 1.725 10.775C1.575 10.625 1.5 10.45 1.5 10.25V2.5C1.5 2.3 1.575 2.125 1.725 1.975C1.875 1.825 2.05 1.75 2.25 1.75H3.0625V1H3.875V1.75H8.125V1H8.9375V1.75H9.75C9.95 1.75 10.125 1.825 10.275 1.975C10.425 2.125 10.5 2.3 10.5 2.5V10.25C10.5 10.45 10.425 10.625 10.275 10.775C10.125 10.925 9.95 11 9.75 11H2.25ZM2.25 10.25H9.75V4.875H2.25V10.25ZM2.25 4.125H9.75V2.5H2.25V4.125ZM2.25 4.125V2.5V4.125ZM6 7C5.85833 7 5.73958 6.95208 5.64375 6.85625C5.54792 6.76042 5.5 6.64167 5.5 6.5C5.5 6.35833 5.54792 6.23958 5.64375 6.14375C5.73958 6.04792 5.85833 6 6 6C6.14167 6 6.26042 6.04792 6.35625 6.14375C6.45208 6.23958 6.5 6.35833 6.5 6.5C6.5 6.64167 6.45208 6.76042 6.35625 6.85625C6.26042 6.95208 6.14167 7 6 7ZM4 7C3.85833 7 3.73958 6.95208 3.64375 6.85625C3.54792 6.76042 3.5 6.64167 3.5 6.5C3.5 6.35833 3.54792 6.23958 3.64375 6.14375C3.73958 6.04792 3.85833 6 4 6C4.14167 6 4.26042 6.04792 4.35625 6.14375C4.45208 6.23958 4.5 6.35833 4.5 6.5C4.5 6.64167 4.45208 6.76042 4.35625 6.85625C4.26042 6.95208 4.14167 7 4 7ZM8 7C7.85833 7 7.73958 6.95208 7.64375 6.85625C7.54792 6.76042 7.5 6.64167 7.5 6.5C7.5 6.35833 7.54792 6.23958 7.64375 6.14375C7.73958 6.04792 7.85833 6 8 6C8.14167 6 8.26042 6.04792 8.35625 6.14375C8.45208 6.23958 8.5 6.35833 8.5 6.5C8.5 6.64167 8.45208 6.76042 8.35625 6.85625C8.26042 6.95208 8.14167 7 8 7ZM6 9C5.85833 9 5.73958 8.95208 5.64375 8.85625C5.54792 8.76042 5.5 8.64167 5.5 8.5C5.5 8.35833 5.54792 8.23958 5.64375 8.14375C5.73958 8.04792 5.85833 8 6 8C6.14167 8 6.26042 8.04792 6.35625 8.14375C6.45208 8.23958 6.5 8.35833 6.5 8.5C6.5 8.64167 6.45208 8.76042 6.35625 8.85625C6.26042 8.95208 6.14167 9 6 9ZM4 9C3.85833 9 3.73958 8.95208 3.64375 8.85625C3.54792 8.76042 3.5 8.64167 3.5 8.5C3.5 8.35833 3.54792 8.23958 3.64375 8.14375C3.73958 8.04792 3.85833 8 4 8C4.14167 8 4.26042 8.04792 4.35625 8.14375C4.45208 8.23958 4.5 8.35833 4.5 8.5C4.5 8.64167 4.45208 8.76042 4.35625 8.85625C4.26042 8.95208 4.14167 9 4 9ZM8 9C7.85833 9 7.73958 8.95208 7.64375 8.85625C7.54792 8.76042 7.5 8.64167 7.5 8.5C7.5 8.35833 7.54792 8.23958 7.64375 8.14375C7.73958 8.04792 7.85833 8 8 8C8.14167 8 8.26042 8.04792 8.35625 8.14375C8.45208 8.23958 8.5 8.35833 8.5 8.5C8.5 8.64167 8.45208 8.76042 8.35625 8.85625C8.26042 8.95208 8.14167 9 8 9Z" fill="black"/>
</svg>
