<svg width="36" height="36" viewBox="0 0 36 36" fill="none" xmlns="http://www.w3.org/2000/svg">
<path d="M6 28.5V26.25H9.15V14.775C9.15 12.675 9.76875 10.8063 11.0063 9.16875C12.2438 7.53125 13.875 6.5 15.9 6.075V4.9875C15.9 4.4125 16.1062 3.9375 16.5187 3.5625C16.9312 3.1875 17.425 3 18 3C18.575 3 19.0688 3.1875 19.4813 3.5625C19.8938 3.9375 20.1 4.4125 20.1 4.9875V6.075C22.125 6.5 23.7625 7.53125 25.0125 9.16875C26.2625 10.8063 26.8875 12.675 26.8875 14.775V26.25H30V28.5H6ZM18 33C17.2 33 16.5 32.7063 15.9 32.1188C15.3 31.5312 15 30.825 15 30H21C21 30.825 20.7063 31.5312 20.1188 32.1188C19.5313 32.7063 18.825 33 18 33ZM11.4 26.25H24.6375V14.775C24.6375 12.925 24 11.35 22.725 10.05C21.45 8.75 19.8875 8.1 18.0375 8.1C16.1875 8.1 14.6187 8.75 13.3312 10.05C12.0437 11.35 11.4 12.925 11.4 14.775V26.25Z" fill="black"/>
</svg>
