<svg width="36" height="36" viewBox="0 0 36 36" fill="none" xmlns="http://www.w3.org/2000/svg">
<path d="M5.55717 14.3985C5.3979 14.3302 5.30119 14.2051 5.26706 14.0231C5.23294 13.841 5.25 13.6818 5.31826 13.5452C6.7062 11.4975 8.49233 9.91611 10.6766 8.80121C12.8609 7.6863 15.2045 7.12885 17.7074 7.12885C20.142 7.12885 22.44 7.65786 24.6016 8.71588C26.7631 9.77391 28.5493 11.2927 29.9599 13.2722C30.0965 13.477 30.1477 13.6647 30.1135 13.8353C30.0794 14.006 29.9941 14.1482 29.8576 14.262C29.721 14.3757 29.5618 14.4269 29.3797 14.4156C29.1977 14.4042 29.0498 14.2961 28.9361 14.0913C27.6619 12.2938 26.0293 10.9116 24.0384 9.94455C22.0475 8.97754 19.9372 8.48266 17.7074 8.45991C15.4548 8.45991 13.3444 8.94341 11.3763 9.91042C9.40814 10.8774 7.79836 12.2824 6.54693 14.1255C6.38766 14.3302 6.21701 14.4497 6.03498 14.4838C5.85296 14.5179 5.69369 14.4895 5.55717 14.3985ZM22.076 31.7023C19.4139 31.1562 17.3262 29.956 15.8132 28.1016C14.3001 26.2472 13.5435 24.0345 13.5435 21.4634C13.5435 20.3029 13.9474 19.3132 14.7551 18.4941C15.5629 17.6749 16.547 17.2654 17.7074 17.2654C18.8678 17.2654 19.8575 17.6579 20.6767 18.4429C21.4958 19.2279 21.9053 20.1892 21.9053 21.3268C21.9053 22.1232 22.1841 22.7944 22.7415 23.3405C23.299 23.8866 23.9759 24.1596 24.7722 24.1596C25.5458 24.1596 26.2057 23.8866 26.7518 23.3405C27.2978 22.7944 27.5709 22.1232 27.5709 21.3268C27.5709 18.6647 26.6039 16.4292 24.6698 14.6203C22.7358 12.8115 20.4036 11.907 17.6732 11.907C14.9429 11.907 12.622 12.8342 10.7108 14.6886C8.7995 16.543 7.84386 18.8126 7.84386 21.4975C7.84386 22.3393 7.90643 23.1698 8.03158 23.989C8.15672 24.8081 8.36719 25.6044 8.66298 26.378C8.73124 26.6056 8.73692 26.7876 8.68004 26.9241C8.62316 27.0606 8.51508 27.163 8.35581 27.2313C8.17378 27.2995 7.99176 27.3109 7.80973 27.2654C7.62771 27.2199 7.49119 27.072 7.40018 26.8217C7.17264 26.1619 6.97355 25.3712 6.8029 24.4497C6.63226 23.5282 6.54693 22.5328 6.54693 21.4634C6.54693 18.4827 7.64477 15.9059 9.84045 13.733C12.0361 11.56 14.6584 10.4736 17.7074 10.4736C20.8018 10.4736 23.4412 11.5259 25.6255 13.6306C27.8098 15.7352 28.9019 18.3007 28.9019 21.3268C28.9019 22.4645 28.5037 23.4429 27.7074 24.262C26.911 25.0811 25.9326 25.4907 24.7722 25.4907C23.5891 25.4907 22.5879 25.0982 21.7688 24.3132C20.9497 23.5282 20.5401 22.5783 20.5401 21.4634C20.5401 20.667 20.2671 19.9844 19.721 19.4156C19.1749 18.8467 18.5037 18.5623 17.7074 18.5623C16.9338 18.5623 16.2682 18.8467 15.7108 19.4156C15.1533 19.9844 14.8746 20.667 14.8746 21.4634C14.8746 23.7842 15.5344 25.7409 16.8541 27.3337C18.1738 28.9264 20.0396 29.9844 22.4514 30.5077C22.6562 30.5305 22.7927 30.6158 22.861 30.7637C22.9292 30.9116 22.952 31.0652 22.9292 31.2245C22.8837 31.4065 22.7984 31.543 22.6732 31.634C22.5481 31.725 22.349 31.7478 22.076 31.7023ZM9.721 7.02646C9.49347 7.14022 9.30575 7.17435 9.15786 7.12885C9.00996 7.08334 8.89051 6.99233 8.7995 6.85581C8.73124 6.7648 8.70848 6.61121 8.73124 6.39506C8.75399 6.1789 8.845 6.03669 9.00427 5.96844C10.324 5.19483 11.729 4.63169 13.2193 4.27901C14.7096 3.92634 16.2057 3.75 17.7074 3.75C19.2091 3.75 20.6823 3.92634 22.1272 4.27901C23.572 4.63169 24.9543 5.1607 26.2739 5.86605C26.4787 5.95706 26.5982 6.09358 26.6323 6.2756C26.6664 6.45763 26.6494 6.6169 26.5811 6.75342C26.4901 6.88994 26.365 6.99802 26.2057 7.07765C26.0464 7.15729 25.8758 7.14022 25.6937 7.02646C24.4651 6.41212 23.1738 5.93431 21.82 5.59301C20.4662 5.25171 19.0953 5.08106 17.7074 5.08106C16.2967 5.08106 14.9201 5.24033 13.5777 5.55888C12.2352 5.87742 10.9497 6.36662 9.721 7.02646ZM14.0213 31.1221C12.7017 29.7796 11.7119 28.3177 11.0521 26.7364C10.3922 25.1551 10.0623 23.3974 10.0623 21.4634C10.0623 19.3701 10.8018 17.5839 12.2807 16.105C13.7597 14.626 15.5686 13.8865 17.7074 13.8865C19.8234 13.8865 21.638 14.609 23.1511 16.0538C24.6642 17.4986 25.4207 19.2563 25.4207 21.3268C25.4207 21.5544 25.3695 21.7421 25.2671 21.89C25.1647 22.0379 24.9998 22.1118 24.7722 22.1118C24.5219 22.1118 24.3399 22.0379 24.2262 21.89C24.1124 21.7421 24.0555 21.5544 24.0555 21.3268C24.0555 19.5976 23.4355 18.1414 22.1954 16.9582C20.9554 15.7751 19.4594 15.1835 17.7074 15.1835C15.9554 15.1835 14.465 15.7978 13.2364 17.0265C12.0077 18.2552 11.3934 19.7341 11.3934 21.4634C11.3934 23.2836 11.6778 24.8706 12.2466 26.2245C12.8154 27.5783 13.7483 28.9264 15.0452 30.2688C15.2045 30.4281 15.2842 30.5874 15.2842 30.7466C15.2842 30.9059 15.2386 31.0424 15.1476 31.1562C15.0339 31.3155 14.8575 31.3951 14.6186 31.3951C14.3797 31.3951 14.1806 31.3041 14.0213 31.1221ZM25.0111 28.8013C22.8041 28.8013 20.9269 28.1585 19.3797 26.8729C17.8325 25.5874 17.0589 23.75 17.0589 21.361C17.0589 21.1562 17.1158 20.9855 17.2295 20.849C17.3433 20.7125 17.5026 20.6442 17.7074 20.6442C17.9121 20.6442 18.0714 20.7125 18.1852 20.849C18.2989 20.9855 18.3558 21.1562 18.3558 21.361C18.3558 23.3632 19.01 24.8877 20.3183 25.9344C21.6266 26.981 23.1909 27.5043 25.0111 27.5043C25.2387 27.5043 25.5003 27.4816 25.7961 27.4361C26.0919 27.3906 26.365 27.3678 26.6152 27.3678C26.7973 27.3678 26.9508 27.4247 27.076 27.5385C27.2011 27.6522 27.2523 27.7774 27.2296 27.9139C27.2296 28.0959 27.1898 28.2381 27.1101 28.3405C27.0305 28.4429 26.9224 28.5168 26.7859 28.5623C26.4673 28.6761 26.1431 28.7444 25.8132 28.7671C25.4833 28.7899 25.2159 28.8013 25.0111 28.8013Z" fill="#1D7B88"/>
</svg>
