<svg width="184" height="58" viewBox="0 0 184 58" fill="none" xmlns="http://www.w3.org/2000/svg">
<g opacity="0.69">
<path d="M68.1573 56.7027C64.2869 56.7027 63.873 53.8391 63.873 52.6086C63.873 51.3781 64.2869 48.5145 68.1573 48.5145H87.6323V37.0263H77.9564C70.3722 37.0263 66.1998 33.4244 66.1998 26.8917V25.6612C66.1998 19.0838 70.3722 15.4595 77.9564 15.4595H107.622V12.3498C107.622 10.4817 106.537 9.36309 104.702 9.36309H70.7413C68.2468 9.36309 66.9045 7.28247 66.9045 5.33609C66.9045 2.71854 68.8844 1.30908 70.7413 1.30908H108.338C115.676 1.30908 118.663 3.94901 118.663 10.4034V22.999H81.1332C78.0906 22.999 77.7662 25.0796 77.7662 25.9857V26.31C77.7662 27.2049 78.0906 29.2967 81.1332 29.2967H116.325C119.882 29.2967 120.162 32.2834 120.162 33.2007C120.162 34.118 119.882 37.0375 116.325 37.0375H98.5388V48.5257H118.014C121.884 48.5257 122.309 51.3893 122.309 52.6198C122.309 53.8503 121.895 56.7139 118.014 56.7139H68.1461L68.1573 56.7027Z" fill="white"/>
<path d="M142.489 6.51032C138.82 6.51032 138.529 9.09431 138.529 9.87734C138.529 10.6604 138.82 13.2444 142.489 13.2444H167.031C170.7 13.2444 170.991 10.6604 170.991 9.87734C170.991 9.09431 170.7 6.51032 167.031 6.51032H142.489ZM138.596 19.7547C131.761 19.7547 127.678 16.0633 127.678 9.87734C127.678 3.69142 131.761 0 138.596 0H170.935C177.77 0 181.853 3.69142 181.853 9.87734C181.853 16.0633 177.77 19.7547 170.935 19.7547H138.596ZM141.516 45.0129C138.798 45.0129 138.797 47.2054 138.797 47.9325V48.5813C138.797 49.3979 138.798 51.568 141.516 51.568H170.734V47.9325C170.734 45.9973 169.794 45.0129 167.949 45.0129H141.527H141.516ZM136.258 58C129.099 58 128.137 56.2662 128.137 49.3643V47.3508C128.137 43.5475 128.54 41.5452 129.535 40.4378C130.576 39.2744 132.589 38.7823 136.258 38.7823H149.368V32.5516H129.435C126.045 32.5516 125.531 30.2696 125.531 28.9161C125.531 27.7975 125.911 25.2135 129.435 25.2135H180.085C183.609 25.2135 183.989 27.8087 183.989 28.9161C183.989 30.2696 183.486 32.5516 180.085 32.5516H160.152V38.7823H173.195C176.864 38.7823 178.877 39.2744 179.918 40.4378C180.913 41.5452 181.316 43.5475 181.316 47.3508V58H136.247H136.258Z" fill="white"/>
</g>
<path d="M68.1573 56.7027C64.2869 56.7027 63.873 53.8391 63.873 52.6086C63.873 51.3781 64.2869 48.5145 68.1573 48.5145H87.6323V37.0263H77.9564C70.3722 37.0263 66.1998 33.4244 66.1998 26.8917V25.6612C66.1998 19.0838 70.3722 15.4595 77.9564 15.4595H107.622V12.3498C107.622 10.4817 106.537 9.36309 104.702 9.36309H70.7413C68.2468 9.36309 66.9045 7.28247 66.9045 5.33609C66.9045 2.71854 68.8844 1.30908 70.7413 1.30908H108.338C115.676 1.30908 118.663 3.94901 118.663 10.4034V22.999H81.1332C78.0906 22.999 77.7662 25.0796 77.7662 25.9857V26.31C77.7662 27.2049 78.0906 29.2967 81.1332 29.2967H116.325C119.882 29.2967 120.162 32.2834 120.162 33.2007C120.162 34.118 119.882 37.0375 116.325 37.0375H98.5388V48.5257H118.014C121.884 48.5257 122.309 51.3893 122.309 52.6198C122.309 53.8503 121.895 56.7139 118.014 56.7139H68.1461L68.1573 56.7027Z" fill="#003E88"/>
<path d="M142.489 6.51032C138.82 6.51032 138.529 9.09431 138.529 9.87734C138.529 10.6604 138.82 13.2444 142.489 13.2444H167.031C170.7 13.2444 170.991 10.6604 170.991 9.87734C170.991 9.09431 170.7 6.51032 167.031 6.51032H142.489ZM138.596 19.7547C131.761 19.7547 127.678 16.0633 127.678 9.87734C127.678 3.69142 131.761 0 138.596 0H170.935C177.77 0 181.853 3.69142 181.853 9.87734C181.853 16.0633 177.77 19.7547 170.935 19.7547H138.596ZM141.516 45.0129C138.798 45.0129 138.797 47.2054 138.797 47.9325V48.5813C138.797 49.3979 138.798 51.568 141.516 51.568H170.734V47.9325C170.734 45.9973 169.794 45.0129 167.949 45.0129H141.527H141.516ZM136.258 58C129.099 58 128.137 56.2662 128.137 49.3643V47.3508C128.137 43.5475 128.54 41.5452 129.535 40.4378C130.576 39.2744 132.589 38.7823 136.258 38.7823H149.368V32.5516H129.435C126.045 32.5516 125.531 30.2696 125.531 28.9161C125.531 27.7975 125.911 25.2135 129.435 25.2135H180.085C183.609 25.2135 183.989 27.8087 183.989 28.9161C183.989 30.2696 183.486 32.5516 180.085 32.5516H160.152V38.7823H173.195C176.864 38.7823 178.877 39.2744 179.918 40.4378C180.913 41.5452 181.316 43.5475 181.316 47.3508V58H136.247H136.258Z" fill="#003E88"/>
<path d="M21.7231 33.7935C29.6988 39.8228 50.5945 39.4984 54.8004 24.8782C55.315 23.0772 55.5275 21.2651 55.4492 19.4865C55.4492 19.2851 55.4045 19.095 55.3821 18.9048C54.0957 8.04309 42.5069 2.85274 32.2716 6.72313C32.5848 6.81262 32.8868 6.93567 33.1777 7.09228C40.4039 10.862 39.4643 29.5875 21.7119 33.7935" fill="#F68B1E"/>
<path d="M19.6987 30.2026C18.692 19.587 22.4953 12.0588 29.2964 8.13244C30.2696 7.57313 31.2652 7.10331 32.2831 6.72299C42.5072 2.85259 54.1072 8.04295 55.3936 18.9047C55.3601 18.5243 55.3265 18.1552 55.2706 17.7749C55.2482 17.663 55.2258 17.5623 55.2035 17.4505C55.1475 17.1149 55.058 16.7905 54.9797 16.4661C52.8544 7.83041 43.8719 0.626555 31.3659 0.0560636C16.8463 -0.615103 0 9.9334 0 29.0057C0 40.8071 7.67367 50.6732 18.0432 54.7785C31.3323 60.036 47.4403 55.6622 54.5659 46.6574C42.1716 53.0671 21.399 48.0333 19.6987 30.2026Z" fill="#003E88"/>
</svg>
