<svg width="36" height="36" viewBox="0 0 36 36" fill="none" xmlns="http://www.w3.org/2000/svg">
<path d="M8.475 30C7.775 30 7.1875 29.7625 6.7125 29.2875C6.2375 28.8125 6 28.225 6 27.525C6 26.825 6.2375 26.2375 6.7125 25.7625C7.1875 25.2875 7.775 25.05 8.475 25.05C9.175 25.05 9.7625 25.2875 10.2375 25.7625C10.7125 26.2375 10.95 26.825 10.95 27.525C10.95 28.225 10.7125 28.8125 10.2375 29.2875C9.7625 29.7625 9.175 30 8.475 30ZM18 30C17.3 30 16.7125 29.7625 16.2375 29.2875C15.7625 28.8125 15.525 28.225 15.525 27.525C15.525 26.825 15.7625 26.2375 16.2375 25.7625C16.7125 25.2875 17.3 25.05 18 25.05C18.7 25.05 19.2875 25.2875 19.7625 25.7625C20.2375 26.2375 20.475 26.825 20.475 27.525C20.475 28.225 20.2375 28.8125 19.7625 29.2875C19.2875 29.7625 18.7 30 18 30ZM27.525 30C26.825 30 26.2375 29.7625 25.7625 29.2875C25.2875 28.8125 25.05 28.225 25.05 27.525C25.05 26.825 25.2875 26.2375 25.7625 25.7625C26.2375 25.2875 26.825 25.05 27.525 25.05C28.225 25.05 28.8125 25.2875 29.2875 25.7625C29.7625 26.2375 30 26.825 30 27.525C30 28.225 29.7625 28.8125 29.2875 29.2875C28.8125 29.7625 28.225 30 27.525 30ZM8.475 20.475C7.775 20.475 7.1875 20.2375 6.7125 19.7625C6.2375 19.2875 6 18.7 6 18C6 17.3 6.2375 16.7125 6.7125 16.2375C7.1875 15.7625 7.775 15.525 8.475 15.525C9.175 15.525 9.7625 15.7625 10.2375 16.2375C10.7125 16.7125 10.95 17.3 10.95 18C10.95 18.7 10.7125 19.2875 10.2375 19.7625C9.7625 20.2375 9.175 20.475 8.475 20.475ZM18 20.475C17.3 20.475 16.7125 20.2375 16.2375 19.7625C15.7625 19.2875 15.525 18.7 15.525 18C15.525 17.3 15.7625 16.7125 16.2375 16.2375C16.7125 15.7625 17.3 15.525 18 15.525C18.7 15.525 19.2875 15.7625 19.7625 16.2375C20.2375 16.7125 20.475 17.3 20.475 18C20.475 18.7 20.2375 19.2875 19.7625 19.7625C19.2875 20.2375 18.7 20.475 18 20.475ZM27.525 20.475C26.825 20.475 26.2375 20.2375 25.7625 19.7625C25.2875 19.2875 25.05 18.7 25.05 18C25.05 17.3 25.2875 16.7125 25.7625 16.2375C26.2375 15.7625 26.825 15.525 27.525 15.525C28.225 15.525 28.8125 15.7625 29.2875 16.2375C29.7625 16.7125 30 17.3 30 18C30 18.7 29.7625 19.2875 29.2875 19.7625C28.8125 20.2375 28.225 20.475 27.525 20.475ZM8.475 10.95C7.775 10.95 7.1875 10.7125 6.7125 10.2375C6.2375 9.7625 6 9.175 6 8.475C6 7.775 6.2375 7.1875 6.7125 6.7125C7.1875 6.2375 7.775 6 8.475 6C9.175 6 9.7625 6.2375 10.2375 6.7125C10.7125 7.1875 10.95 7.775 10.95 8.475C10.95 9.175 10.7125 9.7625 10.2375 10.2375C9.7625 10.7125 9.175 10.95 8.475 10.95ZM18 10.95C17.3 10.95 16.7125 10.7125 16.2375 10.2375C15.7625 9.7625 15.525 9.175 15.525 8.475C15.525 7.775 15.7625 7.1875 16.2375 6.7125C16.7125 6.2375 17.3 6 18 6C18.7 6 19.2875 6.2375 19.7625 6.7125C20.2375 7.1875 20.475 7.775 20.475 8.475C20.475 9.175 20.2375 9.7625 19.7625 10.2375C19.2875 10.7125 18.7 10.95 18 10.95ZM27.525 10.95C26.825 10.95 26.2375 10.7125 25.7625 10.2375C25.2875 9.7625 25.05 9.175 25.05 8.475C25.05 7.775 25.2875 7.1875 25.7625 6.7125C26.2375 6.2375 26.825 6 27.525 6C28.225 6 28.8125 6.2375 29.2875 6.7125C29.7625 7.1875 30 7.775 30 8.475C30 9.175 29.7625 9.7625 29.2875 10.2375C28.8125 10.7125 28.225 10.95 27.525 10.95Z" fill="#1D7B88"/>
<path d="M8.625 8.25H27.75L18 18" stroke="#1D7B88"/>
</svg>
