<svg width="40" height="40" viewBox="0 0 40 40" fill="none" xmlns="http://www.w3.org/2000/svg">
<path d="M32.3333 19.75C32.1944 16.3889 30.9583 13.5417 28.625 11.2083C26.2917 8.875 23.4444 7.63889 20.0833 7.5V5C22.0833 5.05556 23.9653 5.47917 25.7292 6.27083C27.4931 7.0625 29.0417 8.125 30.375 9.45833C31.7083 10.7917 32.7708 12.3403 33.5625 14.1042C34.3542 15.8681 34.7778 17.75 34.8333 19.75H32.3333ZM25.2917 19.75C25.1528 18.3611 24.5972 17.1875 23.625 16.2292C22.6528 15.2708 21.4722 14.7222 20.0833 14.5833V12.0833C22.1667 12.2222 23.9375 13.0139 25.3958 14.4583C26.8542 15.9028 27.6528 17.6667 27.7917 19.75H25.2917ZM33.125 35.0417C29.7361 35.0417 26.3681 34.2083 23.0208 32.5417C19.6736 30.875 16.6667 28.7083 14 26.0417C11.3333 23.375 9.16667 20.3681 7.5 17.0208C5.83333 13.6736 5 10.3056 5 6.91667C5 6.38889 5.18056 5.94444 5.54167 5.58333C5.90278 5.22222 6.34722 5.04167 6.875 5.04167H12.7083C13.0972 5.04167 13.4375 5.17361 13.7292 5.4375C14.0208 5.70139 14.2083 6.05556 14.2917 6.5L15.4167 11.75C15.4722 12.1389 15.4653 12.4931 15.3958 12.8125C15.3264 13.1319 15.1806 13.4028 14.9583 13.625L10.7917 17.8333C12.3472 20.4167 14.0903 22.6667 16.0208 24.5833C17.9514 26.5 20.1389 28.125 22.5833 29.4583L26.5417 25.375C26.8194 25.0694 27.1389 24.8542 27.5 24.7292C27.8611 24.6042 28.2222 24.5833 28.5833 24.6667L33.5417 25.75C33.9583 25.8333 34.3056 26.0417 34.5833 26.375C34.8611 26.7083 35 27.0972 35 27.5417V33.1667C35 33.6944 34.8194 34.1389 34.4583 34.5C34.0972 34.8611 33.6528 35.0417 33.125 35.0417ZM9.54167 15.5417L12.9167 12.125L11.9583 7.54167H7.5C7.5 8.625 7.66667 9.8125 8 11.1042C8.33333 12.3958 8.84722 13.875 9.54167 15.5417ZM24.9167 30.6667C26.0556 31.1944 27.2917 31.625 28.625 31.9583C29.9583 32.2917 31.25 32.4861 32.5 32.5417V28.0833L28.2083 27.2083L24.9167 30.6667Z" fill="#124C7C"/>
</svg>
