<svg width="16" height="16" viewBox="0 0 16 16" fill="none" xmlns="http://www.w3.org/2000/svg">
<path d="M4.33301 15.3333C4.06634 15.3333 3.83301 15.2333 3.63301 15.0333C3.43301 14.8333 3.33301 14.6 3.33301 14.3333V1.66663C3.33301 1.39996 3.43301 1.16663 3.63301 0.966626C3.83301 0.766626 4.06634 0.666626 4.33301 0.666626H11.6663C11.933 0.666626 12.1663 0.766626 12.3663 0.966626C12.5663 1.16663 12.6663 1.39996 12.6663 1.66663V14.3333C12.6663 14.6 12.5663 14.8333 12.3663 15.0333C12.1663 15.2333 11.933 15.3333 11.6663 15.3333H4.33301ZM4.33301 12.8333V14.3333H11.6663V12.8333H4.33301ZM7.99967 14.0833C8.14412 14.0833 8.26356 14.0361 8.35801 13.9416C8.45245 13.8472 8.49967 13.7277 8.49967 13.5833C8.49967 13.4388 8.45245 13.3194 8.35801 13.225C8.26356 13.1305 8.14412 13.0833 7.99967 13.0833C7.85523 13.0833 7.73579 13.1305 7.64134 13.225C7.5469 13.3194 7.49967 13.4388 7.49967 13.5833C7.49967 13.7277 7.5469 13.8472 7.64134 13.9416C7.73579 14.0361 7.85523 14.0833 7.99967 14.0833ZM4.33301 11.8333H11.6663V3.16663H4.33301V11.8333ZM4.33301 2.16663H11.6663V1.66663H4.33301V2.16663Z" fill="#124C7C"/>
<rect x="4" y="1" width="8" height="2" fill="#124C7C"/>
<rect x="4" y="12" width="8" height="3" fill="#124C7C"/>
<circle cx="8" cy="13.5" r="0.5" fill="white"/>
</svg>
