<svg width="78" height="25" viewBox="0 0 78 25" fill="none" xmlns="http://www.w3.org/2000/svg">
<g opacity="0.69">
<path d="M28.8944 24.0383C27.2536 24.0383 27.0781 22.8243 27.0781 22.3027C27.0781 21.781 27.2536 20.567 28.8944 20.567H37.1506V15.6968H33.0486C29.8334 15.6968 28.0645 14.1698 28.0645 11.4003V10.8787C28.0645 8.09025 29.8334 6.55378 33.0486 6.55378H45.6249V5.23544C45.6249 4.44349 45.1649 3.96927 44.3872 3.96927H29.9898C28.9323 3.96927 28.3633 3.08722 28.3633 2.26207C28.3633 1.15239 29.2026 0.554871 29.9898 0.554871H45.9284C49.0393 0.554871 50.3055 1.67404 50.3055 4.4103V9.75003H34.3954C33.1055 9.75003 32.968 10.6321 32.968 11.0162V11.1537C32.968 11.5331 33.1055 12.4199 34.3954 12.4199H49.3144C50.8224 12.4199 50.941 13.6861 50.941 14.0749C50.941 14.4638 50.8224 15.7015 49.3144 15.7015H41.7743V20.5718H50.0305C51.6713 20.5718 51.8515 21.7858 51.8515 22.3074C51.8515 22.8291 51.676 24.0431 50.0305 24.0431H28.8897L28.8944 24.0383Z" fill="white"/>
<path d="M60.4065 2.75997C58.851 2.75997 58.7277 3.85542 58.7277 4.18738C58.7277 4.51933 58.851 5.61479 60.4065 5.61479H70.8109C72.3664 5.61479 72.4897 4.51933 72.4897 4.18738C72.4897 3.85542 72.3664 2.75997 70.8109 2.75997H60.4065ZM58.7562 8.37476C55.8587 8.37476 54.1278 6.80983 54.1278 4.18738C54.1278 1.56493 55.8587 0 58.7562 0H72.4659C75.3634 0 77.0944 1.56493 77.0944 4.18738C77.0944 6.80983 75.3634 8.37476 72.4659 8.37476H58.7562ZM59.9939 19.0827C58.8416 19.0827 58.8416 20.0122 58.8416 20.3204V20.5955C58.8416 20.9416 58.8416 21.8616 59.9939 21.8616H72.3806V20.3204C72.3806 19.5 71.9822 19.0827 71.1998 19.0827H59.9987H59.9939ZM57.7651 24.5884C54.7301 24.5884 54.3222 23.8534 54.3222 20.9274V20.0738C54.3222 18.4615 54.4929 17.6126 54.915 17.1431C55.356 16.6499 56.2096 16.4413 57.7651 16.4413H63.323V13.7999H54.8723C53.4354 13.7999 53.2173 12.8324 53.2173 12.2586C53.2173 11.7844 53.3785 10.689 54.8723 10.689H76.3451C77.8389 10.689 78.0001 11.7892 78.0001 12.2586C78.0001 12.8324 77.7867 13.7999 76.3451 13.7999H67.8944V16.4413H73.4239C74.9793 16.4413 75.8329 16.6499 76.2739 17.1431C76.696 17.6126 76.8667 18.4615 76.8667 20.0738V24.5884H57.7603H57.7651Z" fill="white"/>
</g>
<path d="M28.8944 24.0383C27.2536 24.0383 27.0781 22.8243 27.0781 22.3027C27.0781 21.781 27.2536 20.567 28.8944 20.567H37.1506V15.6968H33.0486C29.8334 15.6968 28.0645 14.1698 28.0645 11.4003V10.8787C28.0645 8.09025 29.8334 6.55378 33.0486 6.55378H45.6249V5.23544C45.6249 4.44349 45.1649 3.96927 44.3872 3.96927H29.9898C28.9323 3.96927 28.3633 3.08722 28.3633 2.26207C28.3633 1.15239 29.2026 0.554871 29.9898 0.554871H45.9284C49.0393 0.554871 50.3055 1.67404 50.3055 4.4103V9.75003H34.3954C33.1055 9.75003 32.968 10.6321 32.968 11.0162V11.1537C32.968 11.5331 33.1055 12.4199 34.3954 12.4199H49.3144C50.8224 12.4199 50.941 13.6861 50.941 14.0749C50.941 14.4638 50.8224 15.7015 49.3144 15.7015H41.7743V20.5718H50.0305C51.6713 20.5718 51.8515 21.7858 51.8515 22.3074C51.8515 22.8291 51.676 24.0431 50.0305 24.0431H28.8897L28.8944 24.0383Z" fill="#003E88"/>
<path d="M60.4065 2.75997C58.851 2.75997 58.7277 3.85542 58.7277 4.18738C58.7277 4.51933 58.851 5.61479 60.4065 5.61479H70.8109C72.3664 5.61479 72.4897 4.51933 72.4897 4.18738C72.4897 3.85542 72.3664 2.75997 70.8109 2.75997H60.4065ZM58.7562 8.37476C55.8587 8.37476 54.1278 6.80983 54.1278 4.18738C54.1278 1.56493 55.8587 0 58.7562 0H72.4659C75.3634 0 77.0944 1.56493 77.0944 4.18738C77.0944 6.80983 75.3634 8.37476 72.4659 8.37476H58.7562ZM59.9939 19.0827C58.8416 19.0827 58.8416 20.0122 58.8416 20.3204V20.5955C58.8416 20.9416 58.8416 21.8616 59.9939 21.8616H72.3806V20.3204C72.3806 19.5 71.9822 19.0827 71.1998 19.0827H59.9987H59.9939ZM57.7651 24.5884C54.7301 24.5884 54.3222 23.8534 54.3222 20.9274V20.0738C54.3222 18.4615 54.4929 17.6126 54.915 17.1431C55.356 16.6499 56.2096 16.4413 57.7651 16.4413H63.323V13.7999H54.8723C53.4354 13.7999 53.2173 12.8324 53.2173 12.2586C53.2173 11.7844 53.3785 10.689 54.8723 10.689H76.3451C77.8389 10.689 78.0001 11.7892 78.0001 12.2586C78.0001 12.8324 77.7867 13.7999 76.3451 13.7999H67.8944V16.4413H73.4239C74.9793 16.4413 75.8329 16.6499 76.2739 17.1431C76.696 17.6126 76.8667 18.4615 76.8667 20.0738V24.5884H57.7603H57.7651Z" fill="#003E88"/>
<path d="M9.20933 14.3263C12.5905 16.8823 21.449 16.7448 23.2321 10.5467C23.4502 9.78321 23.5403 9.01497 23.5071 8.26096C23.5071 8.1756 23.4881 8.09498 23.4787 8.01436C22.9333 3.40967 18.0204 1.20928 13.6812 2.85009C13.814 2.88803 13.9421 2.94019 14.0654 3.00658C17.1288 4.60471 16.7305 12.5432 9.20459 14.3263" fill="#F68B1E"/>
<path d="M8.35104 12.804C7.92424 8.30367 9.5366 5.11215 12.4199 3.44763C12.8324 3.21052 13.2545 3.01135 13.686 2.85011C18.0204 1.20931 22.9381 3.40969 23.4835 8.01439C23.4692 7.85315 23.455 7.69666 23.4313 7.53542C23.4218 7.488 23.4123 7.44532 23.4028 7.3979C23.3791 7.25563 23.3412 7.11811 23.308 6.98059C22.407 3.31959 18.599 0.265605 13.2972 0.0237523C7.14178 -0.260781 0 4.21113 0 12.2966C0 17.2997 3.25316 21.4823 7.6492 23.2227C13.283 25.4515 20.1117 23.5973 23.1325 19.7798C17.8782 22.4971 9.07186 20.3631 8.35104 12.804Z" fill="#003E88"/>
</svg>
