<svg width="67" height="76" viewBox="0 0 67 76" fill="none" xmlns="http://www.w3.org/2000/svg">
<path d="M0.826467 28.9289C0.397928 28.7434 0.137745 28.4035 0.0459149 27.9089C-0.0459148 27.4144 -2.5999e-07 26.9817 0.183659 26.6109C3.91807 21.0476 8.72382 16.7516 14.6009 13.7227C20.478 10.6938 26.7837 9.17935 33.5178 9.17935C40.0684 9.17935 46.2516 10.6165 52.0674 13.4909C57.8833 16.3652 62.6891 20.4913 66.4847 25.8691C66.852 26.4254 66.9898 26.9354 66.8979 27.399C66.8061 27.8626 66.5765 28.2489 66.2092 28.558C65.8419 28.8671 65.4134 29.0061 64.9236 28.9752C64.4338 28.9443 64.0359 28.6507 63.7298 28.0944C60.3015 23.2111 55.909 19.4559 50.5522 16.8288C45.1955 14.2017 39.5174 12.8573 33.5178 12.7955C27.4571 12.7955 21.7789 14.109 16.4834 16.7361C11.1879 19.3632 6.85662 23.1802 3.48953 28.1871C3.06099 28.7434 2.60184 29.068 2.11208 29.1607C1.62232 29.2534 1.19379 29.1761 0.826467 28.9289ZM45.272 75.9383C38.1093 74.4548 32.4924 71.1941 28.4213 66.1563C24.3502 61.1184 22.3146 55.107 22.3146 48.1221C22.3146 44.9696 23.4013 42.2807 25.5746 40.0554C27.7479 37.8301 30.3956 36.7174 33.5178 36.7174C36.64 36.7174 39.3031 37.7837 41.507 39.9163C43.7109 42.0489 44.8129 44.6605 44.8129 47.7512C44.8129 49.9147 45.5628 51.7382 47.0627 53.2217C48.5626 54.7052 50.3839 55.447 52.5266 55.447C54.6081 55.447 56.3834 54.7052 57.8527 53.2217C59.322 51.7382 60.0566 49.9147 60.0566 47.7512C60.0566 40.519 57.4548 34.4458 52.2511 29.5316C47.0474 24.6174 40.7724 22.1603 33.426 22.1603C26.0796 22.1603 19.8352 24.6792 14.6928 29.717C9.55029 34.7548 6.97906 40.9208 6.97906 48.2148C6.97906 50.5019 7.14741 52.7581 7.48412 54.9834C7.82083 57.2087 8.38711 59.3722 9.18297 61.4739C9.36663 62.092 9.38193 62.5865 9.22888 62.9574C9.07583 63.3283 8.78504 63.6064 8.3565 63.7919C7.86674 63.9773 7.37698 64.0082 6.88723 63.8846C6.39747 63.761 6.03015 63.3592 5.78527 62.6792C5.17307 60.8866 4.6374 58.7386 4.17825 56.2351C3.7191 53.7317 3.48953 51.0273 3.48953 48.1221C3.48953 40.0245 6.44338 33.024 12.3511 27.1208C18.2588 21.2176 25.3144 18.266 33.5178 18.266C41.8437 18.266 48.9452 21.1249 54.8223 26.8427C60.6994 32.5604 63.638 39.53 63.638 47.7512C63.638 50.8419 62.5666 53.4999 60.4239 55.7252C58.2812 57.9505 55.6488 59.0631 52.5266 59.0631C49.3432 59.0631 46.6495 57.9968 44.4456 55.8643C42.2417 53.7317 41.1397 51.1509 41.1397 48.1221C41.1397 45.9586 40.4051 44.1042 38.9358 42.5588C37.4665 41.0135 35.6605 40.2408 33.5178 40.2408C31.4364 40.2408 29.6457 41.0135 28.1458 42.5588C26.6459 44.1042 25.896 45.9586 25.896 48.1221C25.896 54.4271 27.6713 59.7431 31.2221 64.07C34.7728 68.397 39.7929 71.2714 46.2822 72.6931C46.8331 72.7549 47.2005 72.9867 47.3841 73.3885C47.5678 73.7903 47.629 74.2075 47.5678 74.6402C47.4453 75.1347 47.2158 75.5056 46.8791 75.7529C46.5424 76.0001 46.0067 76.0619 45.272 75.9383ZM12.0297 8.90119C11.4175 9.21026 10.9124 9.30298 10.5145 9.17935C10.1166 9.05573 9.79517 8.80847 9.55029 8.43759C9.36663 8.19033 9.30541 7.77309 9.36663 7.18586C9.42785 6.59863 9.67273 6.21229 10.1013 6.02685C13.652 3.92518 17.4323 2.39529 21.4422 1.43717C25.4521 0.479057 29.4773 0 33.5178 0C37.5583 0 41.5223 0.479057 45.4098 1.43717C49.2972 2.39529 53.0163 3.83246 56.5671 5.74869C57.1181 5.99594 57.4395 6.36683 57.5313 6.86134C57.6231 7.35585 57.5772 7.78854 57.3936 8.15943C57.1487 8.53031 56.812 8.82393 56.3834 9.04027C55.9549 9.25662 55.4957 9.21026 55.006 8.90119C51.7001 7.23222 48.2259 5.93413 44.5833 5.00692C40.9407 4.07971 37.2522 3.61611 33.5178 3.61611C29.7222 3.61611 26.0184 4.04881 22.4064 4.9142C18.7945 5.77959 15.3356 7.10859 12.0297 8.90119ZM23.6002 74.362C20.0495 70.715 17.3864 66.7435 15.611 62.4474C13.8357 58.1514 12.948 53.3762 12.948 48.1221C12.948 42.4352 14.9376 37.5828 18.9169 33.5649C22.8962 29.547 27.7632 27.5381 33.5178 27.5381C39.2113 27.5381 44.0936 29.5007 48.1647 33.4258C52.2358 37.351 54.2714 42.1261 54.2714 47.7512C54.2714 48.3693 54.1336 48.8793 53.8581 49.2811C53.5826 49.6829 53.1388 49.8838 52.5266 49.8838C51.8532 49.8838 51.3634 49.6829 51.0573 49.2811C50.7512 48.8793 50.5982 48.3693 50.5982 47.7512C50.5982 43.0533 48.9299 39.0973 45.5934 35.8829C42.257 32.6686 38.2318 31.0615 33.5178 31.0615C28.8039 31.0615 24.794 32.7304 21.4881 36.0684C18.1823 39.4063 16.5293 43.4242 16.5293 48.1221C16.5293 53.0672 17.2946 57.3787 18.8251 61.0566C20.3556 64.7345 22.8656 68.397 26.3551 72.044C26.7837 72.4767 26.9979 72.9094 26.9979 73.3421C26.9979 73.7748 26.8755 74.1457 26.6306 74.4548C26.3245 74.8875 25.8501 75.1038 25.2072 75.1038C24.5644 75.1038 24.0288 74.8566 23.6002 74.362ZM53.1694 68.057C47.2311 68.057 42.1804 66.3108 38.0175 62.8183C33.8546 59.3258 31.7731 54.3344 31.7731 47.8439C31.7731 47.2876 31.9261 46.824 32.2322 46.4531C32.5383 46.0822 32.9669 45.8968 33.5178 45.8968C34.0688 45.8968 34.4974 46.0822 34.8035 46.4531C35.1096 46.824 35.2626 47.2876 35.2626 47.8439C35.2626 53.2835 37.0227 57.4251 40.5428 60.2685C44.0629 63.1119 48.2718 64.5336 53.1694 64.5336C53.7816 64.5336 54.4856 64.4718 55.2815 64.3482C56.0773 64.2246 56.812 64.1628 57.4854 64.1628C57.9752 64.1628 58.3884 64.3173 58.7251 64.6264C59.0618 64.9354 59.1995 65.2754 59.1383 65.6463C59.1383 66.1408 59.0312 66.5271 58.8169 66.8053C58.6026 67.0835 58.3119 67.2844 57.9445 67.408C57.0875 67.7171 56.2151 67.9025 55.3274 67.9643C54.4397 68.0261 53.7204 68.057 53.1694 68.057Z" fill="white"/>
</svg>
