<svg width="40" height="40" viewBox="0 0 40 40" fill="none" xmlns="http://www.w3.org/2000/svg">
<path d="M30.4163 21.25V18.75H36.6663V21.25H30.4163ZM32.4997 33.3333L27.458 29.5833L28.958 27.5833L33.9997 31.3333L32.4997 33.3333ZM29.083 12.375L27.583 10.375L32.4997 6.66663L33.9997 8.66663L29.083 12.375ZM8.74967 31.6666V25H5.83301C5.13856 25 4.54829 24.7569 4.06217 24.2708C3.57606 23.7847 3.33301 23.1944 3.33301 22.5V17.5C3.33301 16.8055 3.57606 16.2152 4.06217 15.7291C4.54829 15.243 5.13856 15 5.83301 15H13.333L21.6663 9.99996V30L13.333 25H11.2497V31.6666H8.74967ZM23.333 25.5833V14.4166C24.083 15.0833 24.6872 15.8958 25.1455 16.8541C25.6038 17.8125 25.833 18.8611 25.833 20C25.833 21.1388 25.6038 22.1875 25.1455 23.1458C24.6872 24.1041 24.083 24.9166 23.333 25.5833ZM5.83301 17.5V22.5H13.9997L19.1663 25.5833V14.4166L13.9997 17.5H5.83301Z" fill="#124C7C"/>
</svg>
