<svg width="40" height="40" viewBox="0 0 40 40" fill="none" xmlns="http://www.w3.org/2000/svg">
<path d="M0 30V27.7917C0 26.7083 0.583333 25.8333 1.75 25.1667C2.91667 24.5 4.41667 24.1667 6.25 24.1667C6.61111 24.1667 6.94444 24.1736 7.25 24.1875C7.55556 24.2014 7.86111 24.2361 8.16667 24.2917C7.94444 24.7639 7.77778 25.2431 7.66667 25.7292C7.55556 26.2153 7.5 26.7361 7.5 27.2917V30H0ZM10 30V27.2917C10 25.4861 10.9236 24.0278 12.7708 22.9167C14.6181 21.8056 17.0278 21.25 20 21.25C23 21.25 25.4167 21.8056 27.25 22.9167C29.0833 24.0278 30 25.4861 30 27.2917V30H10ZM32.5 30V27.2917C32.5 26.7361 32.4514 26.2153 32.3542 25.7292C32.2569 25.2431 32.0972 24.7639 31.875 24.2917C32.1806 24.2361 32.4861 24.2014 32.7917 24.1875C33.0972 24.1736 33.4167 24.1667 33.75 24.1667C35.6389 24.1667 37.1528 24.5 38.2917 25.1667C39.4306 25.8333 40 26.7083 40 27.7917V30H32.5ZM20 23.75C17.7778 23.75 15.9722 24.0833 14.5833 24.75C13.1944 25.4167 12.5 26.2639 12.5 27.2917V27.5H27.5V27.25C27.5 26.25 26.8125 25.4167 25.4375 24.75C24.0625 24.0833 22.25 23.75 20 23.75ZM6.25 22.9167C5.44444 22.9167 4.75694 22.6319 4.1875 22.0625C3.61806 21.4931 3.33333 20.8056 3.33333 20C3.33333 19.1944 3.61806 18.5069 4.1875 17.9375C4.75694 17.3681 5.44444 17.0833 6.25 17.0833C7.05556 17.0833 7.74306 17.3681 8.3125 17.9375C8.88194 18.5069 9.16667 19.1944 9.16667 20C9.16667 20.8056 8.88194 21.4931 8.3125 22.0625C7.74306 22.6319 7.05556 22.9167 6.25 22.9167ZM33.75 22.9167C32.9444 22.9167 32.2569 22.6319 31.6875 22.0625C31.1181 21.4931 30.8333 20.8056 30.8333 20C30.8333 19.1944 31.1181 18.5069 31.6875 17.9375C32.2569 17.3681 32.9444 17.0833 33.75 17.0833C34.5556 17.0833 35.2431 17.3681 35.8125 17.9375C36.3819 18.5069 36.6667 19.1944 36.6667 20C36.6667 20.8056 36.3819 21.4931 35.8125 22.0625C35.2431 22.6319 34.5556 22.9167 33.75 22.9167ZM20 20C18.6111 20 17.4306 19.5139 16.4583 18.5417C15.4861 17.5694 15 16.3889 15 15C15 13.5833 15.4861 12.3958 16.4583 11.4375C17.4306 10.4792 18.6111 10 20 10C21.4167 10 22.6042 10.4792 23.5625 11.4375C24.5208 12.3958 25 13.5833 25 15C25 16.3889 24.5208 17.5694 23.5625 18.5417C22.6042 19.5139 21.4167 20 20 20ZM20 12.5C19.3056 12.5 18.7153 12.7361 18.2292 13.2083C17.7431 13.6806 17.5 14.2778 17.5 15C17.5 15.6944 17.7431 16.2847 18.2292 16.7708C18.7153 17.2569 19.3056 17.5 20 17.5C20.7222 17.5 21.3194 17.2569 21.7917 16.7708C22.2639 16.2847 22.5 15.6944 22.5 15C22.5 14.2778 22.2639 13.6806 21.7917 13.2083C21.3194 12.7361 20.7222 12.5 20 12.5Z" fill="white"/>
</svg>
