<svg width="40" height="40" viewBox="0 0 40 40" fill="none" xmlns="http://www.w3.org/2000/svg">
<path d="M30.4168 21.25V18.75H36.6668V21.25H30.4168ZM32.5002 33.3333L27.4585 29.5833L28.9585 27.5833L34.0002 31.3333L32.5002 33.3333ZM29.0835 12.375L27.5835 10.375L32.5002 6.66667L34.0002 8.66667L29.0835 12.375ZM8.75016 31.6667V25H5.8335C5.13905 25 4.54877 24.7569 4.06266 24.2708C3.57655 23.7847 3.3335 23.1944 3.3335 22.5V17.5C3.3335 16.8056 3.57655 16.2153 4.06266 15.7292C4.54877 15.2431 5.13905 15 5.8335 15H13.3335L21.6668 10V30L13.3335 25H11.2502V31.6667H8.75016ZM23.3335 25.5833V14.4167C24.0835 15.0833 24.6877 15.8958 25.146 16.8542C25.6043 17.8125 25.8335 18.8611 25.8335 20C25.8335 21.1389 25.6043 22.1875 25.146 23.1458C24.6877 24.1042 24.0835 24.9167 23.3335 25.5833ZM5.8335 17.5V22.5H14.0002L19.1668 25.5833V14.4167L14.0002 17.5H5.8335Z" fill="white"/>
</svg>
