<svg width="36" height="36" viewBox="0 0 36 36" fill="none" xmlns="http://www.w3.org/2000/svg">
<rect x="5.1375" y="12.6375" width="25.925" height="11.475" stroke="#1D7B88" stroke-width="1.275"/>
<path d="M11.5781 20.5195L11.6719 18.832L10.2539 19.7578L9.75 18.9023L11.2617 18.1406L9.75 17.3672L10.2539 16.5117L11.6719 17.4375L11.5781 15.75H12.5742L12.4805 17.4375L13.8984 16.5117L14.3906 17.3672L12.8906 18.1406L14.3906 18.9023L13.8984 19.7578L12.4805 18.832L12.5742 20.5195H11.5781Z" fill="#1D7B88"/>
<path d="M17.7773 20.5195L17.8711 18.832L16.4531 19.7578L15.9492 18.9023L17.4609 18.1406L15.9492 17.3672L16.4531 16.5117L17.8711 17.4375L17.7773 15.75H18.7734L18.6797 17.4375L20.0977 16.5117L20.5898 17.3672L19.0898 18.1406L20.5898 18.9023L20.0977 19.7578L18.6797 18.832L18.7734 20.5195H17.7773Z" fill="#1D7B88"/>
<path d="M23.9766 20.5195L24.0703 18.832L22.6523 19.7578L22.1484 18.9023L23.6602 18.1406L22.1484 17.3672L22.6523 16.5117L24.0703 17.4375L23.9766 15.75H24.9727L24.8789 17.4375L26.2969 16.5117L26.7891 17.3672L25.2891 18.1406L26.7891 18.9023L26.2969 19.7578L24.8789 18.832L24.9727 20.5195H23.9766Z" fill="#1D7B88"/>
</svg>
