<svg width="16" height="16" viewBox="0 0 16 16" fill="none" xmlns="http://www.w3.org/2000/svg">
<path d="M13.25 14C11.8944 14 10.5472 13.6667 9.20833 13C7.86944 12.3333 6.66667 11.4667 5.6 10.4C4.53333 9.33333 3.66667 8.13056 3 6.79167C2.33333 5.45278 2 4.10556 2 2.75C2 2.53889 2.07222 2.36111 2.21667 2.21667C2.36111 2.07222 2.53889 2 2.75 2H5.08333C5.23889 2 5.375 2.05278 5.49167 2.15833C5.60833 2.26389 5.68333 2.40556 5.71667 2.58333L6.16667 4.68333C6.18889 4.83889 6.18611 4.98056 6.15833 5.10833C6.13056 5.23611 6.07222 5.34444 5.98333 5.43333L4.31667 7.11667C4.93889 8.15 5.63611 9.05 6.40833 9.81667C7.18056 10.5833 8.05556 11.2333 9.03333 11.7667L10.6167 10.1333C10.7278 10.0111 10.8556 9.925 11 9.875C11.1444 9.825 11.2889 9.81667 11.4333 9.85L13.4167 10.2833C13.5833 10.3167 13.7222 10.4 13.8333 10.5333C13.9444 10.6667 14 10.8222 14 11V13.25C14 13.4611 13.9278 13.6389 13.7833 13.7833C13.6389 13.9278 13.4611 14 13.25 14Z" fill="#124C7C"/>
</svg>
