<svg width="86" height="43" viewBox="0 0 86 43" fill="none" xmlns="http://www.w3.org/2000/svg">
<g filter="url(#filter0_d_1_453)">
<path fill-rule="evenodd" clip-rule="evenodd" d="M0 8C0 5.19974 0 3.79961 0.544967 2.73005C1.02433 1.78924 1.78924 1.02433 2.73005 0.544967C3.79961 0 5.19974 0 8 0H77.939C80.7393 0 82.1394 0 83.209 0.544967C84.1498 1.02433 84.9147 1.78924 85.3941 2.73005C85.939 3.79961 85.939 5.19974 85.939 8V34C85.939 36.8003 85.939 38.2004 85.3941 39.27C84.9147 40.2108 84.1498 40.9757 83.209 41.455C82.1394 42 80.7393 42 77.939 42H8.00001C5.19974 42 3.79961 42 2.73005 41.455C1.78924 40.9757 1.02433 40.2108 0.544967 39.27C0 38.2004 0 36.8003 0 34V8Z" fill="#AAADB3"/>
</g>
<defs>
<filter id="filter0_d_1_453" x="0" y="0" width="85.939" height="43" filterUnits="userSpaceOnUse" color-interpolation-filters="sRGB">
<feFlood flood-opacity="0" result="BackgroundImageFix"/>
<feColorMatrix in="SourceAlpha" type="matrix" values="0 0 0 0 0 0 0 0 0 0 0 0 0 0 0 0 0 0 127 0" result="hardAlpha"/>
<feOffset dy="1"/>
<feColorMatrix type="matrix" values="0 0 0 0 0.0156863 0 0 0 0 0.0156863 0 0 0 0 0.0588235 0 0 0 0.36 0"/>
<feBlend mode="normal" in2="BackgroundImageFix" result="effect1_dropShadow_1_453"/>
<feBlend mode="normal" in="SourceGraphic" in2="effect1_dropShadow_1_453" result="shape"/>
</filter>
</defs>
</svg>
