<svg width="16" height="16" viewBox="0 0 16 16" fill="none" xmlns="http://www.w3.org/2000/svg">
<path d="M8.00033 7.83337C8.32255 7.83337 8.59755 7.71948 8.82533 7.49171C9.0531 7.26393 9.16699 6.98893 9.16699 6.66671C9.16699 6.34448 9.0531 6.06948 8.82533 5.84171C8.59755 5.61393 8.32255 5.50004 8.00033 5.50004C7.6781 5.50004 7.4031 5.61393 7.17533 5.84171C6.94755 6.06948 6.83366 6.34448 6.83366 6.66671C6.83366 6.98893 6.94755 7.26393 7.17533 7.49171C7.4031 7.71948 7.6781 7.83337 8.00033 7.83337ZM8.00033 14.6667C6.21144 13.1445 4.87533 11.7306 3.99199 10.425C3.10866 9.11948 2.66699 7.91115 2.66699 6.80004C2.66699 5.13337 3.2031 3.8056 4.27533 2.81671C5.34755 1.82782 6.58921 1.33337 8.00033 1.33337C9.41144 1.33337 10.6531 1.82782 11.7253 2.81671C12.7975 3.8056 13.3337 5.13337 13.3337 6.80004C13.3337 7.91115 12.892 9.11948 12.0087 10.425C11.1253 11.7306 9.78921 13.1445 8.00033 14.6667Z" fill="#124C7C"/>
</svg>
