<svg width="24" height="24" viewBox="0 0 24 24" fill="none" xmlns="http://www.w3.org/2000/svg">
<path d="M0.666504 19V17.4542C0.666504 16.6958 1.00192 16.0833 1.67275 15.6167C2.34359 15.15 3.20609 14.9167 4.26025 14.9167C4.46789 14.9167 4.65956 14.9215 4.83525 14.9312C5.01095 14.941 5.18664 14.9653 5.36234 15.0042C5.23456 15.3347 5.13873 15.6701 5.07484 16.0104C5.01095 16.3507 4.979 16.7153 4.979 17.1042V19H0.666504ZM6.4165 19V17.1042C6.4165 15.8403 6.94758 14.8194 8.00973 14.0417C9.07189 13.2639 10.4575 12.875 12.1665 12.875C13.8915 12.875 15.2811 13.2639 16.3353 14.0417C17.3894 14.8194 17.9165 15.8403 17.9165 17.1042V19H6.4165ZM19.354 19V17.1042C19.354 16.7153 19.3261 16.3507 19.2701 16.0104C19.2142 15.6701 19.1224 15.3347 18.9946 15.0042C19.1703 14.9653 19.346 14.941 19.5217 14.9312C19.6974 14.9215 19.8811 14.9167 20.0728 14.9167C21.1589 14.9167 22.0294 15.15 22.6842 15.6167C23.3391 16.0833 23.6665 16.6958 23.6665 17.4542V19H19.354ZM12.1665 14.625C10.8887 14.625 9.85053 14.8583 9.05192 15.325C8.25331 15.7917 7.854 16.3847 7.854 17.1042V17.25H16.479V17.075C16.479 16.375 16.0837 15.7917 15.2931 15.325C14.5024 14.8583 13.4603 14.625 12.1665 14.625ZM4.26025 14.0417C3.79706 14.0417 3.40175 13.8424 3.07432 13.4438C2.74689 13.0451 2.58317 12.5639 2.58317 12C2.58317 11.4361 2.74689 10.9549 3.07432 10.5562C3.40175 10.1576 3.79706 9.95833 4.26025 9.95833C4.72345 9.95833 5.11876 10.1576 5.44619 10.5562C5.77362 10.9549 5.93734 11.4361 5.93734 12C5.93734 12.5639 5.77362 13.0451 5.44619 13.4438C5.11876 13.8424 4.72345 14.0417 4.26025 14.0417ZM20.0728 14.0417C19.6096 14.0417 19.2142 13.8424 18.8868 13.4438C18.5594 13.0451 18.3957 12.5639 18.3957 12C18.3957 11.4361 18.5594 10.9549 18.8868 10.5562C19.2142 10.1576 19.6096 9.95833 20.0728 9.95833C20.5359 9.95833 20.9313 10.1576 21.2587 10.5562C21.5861 10.9549 21.7498 11.4361 21.7498 12C21.7498 12.5639 21.5861 13.0451 21.2587 13.4438C20.9313 13.8424 20.5359 14.0417 20.0728 14.0417ZM12.1665 12C11.3679 12 10.6891 11.6597 10.13 10.9792C9.57102 10.2986 9.2915 9.47222 9.2915 8.5C9.2915 7.50833 9.57102 6.67708 10.13 6.00625C10.6891 5.33542 11.3679 5 12.1665 5C12.9811 5 13.6639 5.33542 14.2149 6.00625C14.766 6.67708 15.0415 7.50833 15.0415 8.5C15.0415 9.47222 14.766 10.2986 14.2149 10.9792C13.6639 11.6597 12.9811 12 12.1665 12ZM12.1665 6.75C11.7672 6.75 11.4278 6.91528 11.1483 7.24583C10.8688 7.57639 10.729 7.99444 10.729 8.5C10.729 8.98611 10.8688 9.39931 11.1483 9.73958C11.4278 10.0799 11.7672 10.25 12.1665 10.25C12.5818 10.25 12.9252 10.0799 13.1967 9.73958C13.4682 9.39931 13.604 8.98611 13.604 8.5C13.604 7.99444 13.4682 7.57639 13.1967 7.24583C12.9252 6.91528 12.5818 6.75 12.1665 6.75Z" fill="#124C7C"/>
</svg>
