<svg width="16" height="16" viewBox="0 0 16 16" fill="none" xmlns="http://www.w3.org/2000/svg">
<path d="M11.9668 4.7H4.0335V2H11.9668V4.7ZM12.3168 7.78333C12.4502 7.78333 12.5668 7.73333 12.6668 7.63333C12.7668 7.53333 12.8168 7.41667 12.8168 7.28333C12.8168 7.15 12.7668 7.03333 12.6668 6.93333C12.5668 6.83333 12.4502 6.78333 12.3168 6.78333C12.1835 6.78333 12.0668 6.83333 11.9668 6.93333C11.8668 7.03333 11.8168 7.15 11.8168 7.28333C11.8168 7.41667 11.8668 7.53333 11.9668 7.63333C12.0668 7.73333 12.1835 7.78333 12.3168 7.78333ZM10.9668 13V9.8H5.0335V13H10.9668ZM11.9668 14H4.0335V11.0667H1.3335V6.96667C1.3335 6.46667 1.50294 6.04722 1.84183 5.70833C2.18072 5.36944 2.60016 5.2 3.10016 5.2H12.9002C13.4002 5.2 13.8196 5.36944 14.1585 5.70833C14.4974 6.04722 14.6668 6.46667 14.6668 6.96667V11.0667H11.9668V14Z" fill="#124C7C"/>
</svg>
