<svg width="42" height="43" viewBox="0 0 42 43" fill="none" xmlns="http://www.w3.org/2000/svg">
<g filter="url(#filter0_d_1_367)">
<path fill-rule="evenodd" clip-rule="evenodd" d="M0 8C0 5.19974 0 3.79961 0.544967 2.73005C1.02433 1.78924 1.78924 1.02433 2.73005 0.544967C3.79961 0 5.19974 0 8 0H34C36.8003 0 38.2004 0 39.27 0.544967C40.2108 1.02433 40.9757 1.78924 41.455 2.73005C42 3.79961 42 5.19974 42 8V34C42 36.8003 42 38.2004 41.455 39.27C40.9757 40.2108 40.2108 40.9757 39.27 41.455C38.2004 42 36.8003 42 34 42H8C5.19974 42 3.79961 42 2.73005 41.455C1.78924 40.9757 1.02433 40.2108 0.544967 39.27C0 38.2004 0 36.8003 0 34V8Z" fill="white" fill-opacity="0.13"/>
</g>
<path fill-rule="evenodd" clip-rule="evenodd" d="M10.0604 19.9393C9.47465 20.5251 9.47465 21.4749 10.0604 22.0607L17.2069 29.2071C17.3944 29.3946 17.6488 29.5 17.914 29.5H28.9998C30.9328 29.5 32.4998 27.933 32.4998 26V16C32.4998 14.067 30.9328 12.5 28.9998 12.5H17.914C17.6488 12.5 17.3944 12.6054 17.2069 12.7929L10.0604 19.9393ZM11.7069 20.2929C11.3164 20.6834 11.3164 21.3166 11.7069 21.7071L17.8533 27.8536C17.9471 27.9473 18.0743 28 18.2069 28H28.9998C30.1043 28 30.9998 27.1046 30.9998 26V16C30.9998 14.8954 30.1043 14 28.9998 14H18.2069C18.0743 14 17.9471 14.0527 17.8533 14.1464L11.7069 20.2929ZM26.41 17.0886C26.7028 16.7957 27.1777 16.7957 27.4706 17.0886C27.7635 17.3815 27.7635 17.8564 27.4706 18.1493L24.6421 20.9777L27.4705 23.8061C27.7634 24.099 27.7634 24.5739 27.4705 24.8668C27.1776 25.1597 26.7027 25.1597 26.4098 24.8668L23.5815 22.0384L20.7531 24.8668C20.4602 25.1597 19.9853 25.1597 19.6924 24.8668C19.3995 24.5739 19.3995 24.099 19.6924 23.8061L22.5208 20.9777L19.6923 18.1493C19.3994 17.8564 19.3994 17.3815 19.6923 17.0886C19.9852 16.7957 20.4601 16.7957 20.753 17.0886L23.5815 19.9171L26.41 17.0886Z" fill="#030303"/>
<defs>
<filter id="filter0_d_1_367" x="0" y="0" width="42" height="43" filterUnits="userSpaceOnUse" color-interpolation-filters="sRGB">
<feFlood flood-opacity="0" result="BackgroundImageFix"/>
<feColorMatrix in="SourceAlpha" type="matrix" values="0 0 0 0 0 0 0 0 0 0 0 0 0 0 0 0 0 0 127 0" result="hardAlpha"/>
<feOffset dy="1"/>
<feColorMatrix type="matrix" values="0 0 0 0 0 0 0 0 0 0 0 0 0 0 0 0 0 0 0.35 0"/>
<feBlend mode="normal" in2="BackgroundImageFix" result="effect1_dropShadow_1_367"/>
<feBlend mode="normal" in="SourceGraphic" in2="effect1_dropShadow_1_367" result="shape"/>
</filter>
</defs>
</svg>
