<svg width="40" height="40" viewBox="0 0 40 40" fill="none" xmlns="http://www.w3.org/2000/svg">
<path d="M7.5 35C6.83333 35 6.25 34.75 5.75 34.25C5.25 33.75 5 33.1667 5 32.5V7.5C5 6.83333 5.25 6.25 5.75 5.75C6.25 5.25 6.83333 5 7.5 5H26.75L35 13.25V32.5C35 33.1667 34.75 33.75 34.25 34.25C33.75 34.75 33.1667 35 32.5 35H7.5ZM7.5 32.5H32.5V14.625H25.375V7.5H7.5V32.5ZM11.625 27.875H28.375V25.375H11.625V27.875ZM11.625 14.625H20V12.125H11.625V14.625ZM11.625 21.25H28.375V18.75H11.625V21.25ZM7.5 7.5V14.625V7.5V32.5V7.5Z" fill="white"/>
</svg>
