<svg width="40" height="40" viewBox="0 0 40 40" fill="none" xmlns="http://www.w3.org/2000/svg">
<path d="M19.9997 36.6667C17.6663 36.6667 15.4858 36.2292 13.458 35.3542C11.4302 34.4792 9.66634 33.2917 8.16634 31.7917C6.66634 30.2917 5.48579 28.5209 4.62467 26.4792C3.76356 24.4375 3.33301 22.25 3.33301 19.9167C3.33301 17.5834 3.76356 15.4098 4.62467 13.3959C5.48579 11.382 6.66634 9.62504 8.16634 8.12504C9.66634 6.62504 11.4302 5.45143 13.458 4.60421C15.4858 3.75699 17.6663 3.33337 19.9997 3.33337C22.333 3.33337 24.5136 3.75699 26.5413 4.60421C28.5691 5.45143 30.333 6.62504 31.833 8.12504C33.333 9.62504 34.5136 11.382 35.3747 13.3959C36.2358 15.4098 36.6663 17.5834 36.6663 19.9167C36.6663 22.25 36.2358 24.4375 35.3747 26.4792C34.5136 28.5209 33.333 30.2917 31.833 31.7917C30.333 33.2917 28.5691 34.4792 26.5413 35.3542C24.5136 36.2292 22.333 36.6667 19.9997 36.6667ZM19.9997 34.25C20.9719 33.25 21.7844 32.1042 22.4372 30.8125C23.09 29.5209 23.6247 27.9862 24.0413 26.2084H15.9997C16.3886 27.875 16.9094 29.375 17.5622 30.7084C18.215 32.0417 19.0275 33.2223 19.9997 34.25ZM16.458 33.75C15.7636 32.6945 15.1663 31.5556 14.6663 30.3334C14.1663 29.1112 13.7497 27.7362 13.4163 26.2084H7.16634C8.2219 28.1806 9.44412 29.7292 10.833 30.8542C12.2219 31.9792 14.0969 32.9445 16.458 33.75ZM23.583 33.7084C25.583 33.0695 27.3816 32.1112 28.9788 30.8334C30.5761 29.5556 31.8608 28.0139 32.833 26.2084H26.6247C26.2636 27.7084 25.84 29.0695 25.3538 30.2917C24.8677 31.5139 24.2775 32.6528 23.583 33.7084ZM6.33301 23.7084H12.958C12.8747 22.9584 12.8261 22.2848 12.8122 21.6875C12.7983 21.0903 12.7913 20.5 12.7913 19.9167C12.7913 19.2223 12.8052 18.6042 12.833 18.0625C12.8608 17.5209 12.9163 16.9167 12.9997 16.25H6.33301C6.13856 16.9167 6.00662 17.5139 5.93717 18.0417C5.86773 18.5695 5.83301 19.1945 5.83301 19.9167C5.83301 20.6389 5.86773 21.2848 5.93717 21.8542C6.00662 22.4237 6.13856 23.0417 6.33301 23.7084ZM15.5413 23.7084H24.4997C24.6108 22.8473 24.6802 22.1459 24.708 21.6042C24.7358 21.0625 24.7497 20.5 24.7497 19.9167C24.7497 19.3612 24.7358 18.8264 24.708 18.3125C24.6802 17.7987 24.6108 17.1112 24.4997 16.25H15.5413C15.4302 17.1112 15.3608 17.7987 15.333 18.3125C15.3052 18.8264 15.2913 19.3612 15.2913 19.9167C15.2913 20.5 15.3052 21.0625 15.333 21.6042C15.3608 22.1459 15.4302 22.8473 15.5413 23.7084ZM26.9997 23.7084H33.6663C33.8608 23.0417 33.9927 22.4237 34.0622 21.8542C34.1316 21.2848 34.1663 20.6389 34.1663 19.9167C34.1663 19.1945 34.1316 18.5695 34.0622 18.0417C33.9927 17.5139 33.8608 16.9167 33.6663 16.25H27.0413C27.1247 17.2223 27.1802 17.9653 27.208 18.4792C27.2358 18.9931 27.2497 19.4723 27.2497 19.9167C27.2497 20.5278 27.2288 21.1042 27.1872 21.6459C27.1455 22.1875 27.083 22.875 26.9997 23.7084ZM26.583 13.75H32.833C31.9163 11.8334 30.6594 10.2362 29.0622 8.95837C27.465 7.6806 25.6247 6.77782 23.5413 6.25004C24.2358 7.27782 24.8261 8.38893 25.3122 9.58337C25.7983 10.7778 26.2219 12.1667 26.583 13.75ZM15.9997 13.75H24.083C23.7775 12.2778 23.2636 10.8542 22.5413 9.47921C21.8191 8.10421 20.9719 6.88893 19.9997 5.83337C19.1108 6.58337 18.3608 7.56949 17.7497 8.79171C17.1386 10.0139 16.5552 11.6667 15.9997 13.75ZM7.16634 13.75H13.458C13.7636 12.25 14.1525 10.9098 14.6247 9.72921C15.0969 8.54865 15.6941 7.40282 16.4163 6.29171C14.333 6.81949 12.5136 7.70837 10.958 8.95837C9.40245 10.2084 8.13856 11.8056 7.16634 13.75Z" fill="#124C7C"/>
</svg>
